<?xml version="1.0"?>
<svg width="1280" height="1215" xmlns="http://www.w3.org/2000/svg" xmlns:svg="http://www.w3.org/2000/svg" preserveAspectRatio="xMidYMid meet">
 <metadata>Created by potrace 1.15, written by Peter Selinger 2001-2017</metadata>
 <g class="layer">
  <title>Layer 1</title>
  <g fill="#000000" id="svg_1" transform="translate(0 1215) scale(0.1 -0.1)">
   <path d="m6075,12136c-402,-80 -711,-444 -1137,-1341c-199,-417 -472,-1060 -810,-1905c-71,-179 -134,-328 -139,-331c-5,-3 -64,-11 -132,-18c-595,-61 -1378,-177 -1870,-277c-1200,-244 -1787,-545 -1943,-993c-122,-352 29,-715 445,-1071c268,-228 512,-391 1261,-840c712,-427 882,-536 1115,-716c122,-94 118,-88 94,-164c-42,-135 -171,-585 -234,-820c-372,-1378 -500,-2338 -385,-2897c124,-602 554,-877 1120,-713c399,115 858,422 1495,1000c302,274 893,870 1206,1217c35,39 67,71 71,72c4,1 182,-138 395,-307c1334,-1059 1949,-1491 2513,-1766c275,-133 460,-194 665,-217c330,-37 614,94 768,353c248,419 173,1144 -253,2418c-149,448 -427,1175 -639,1675c-28,65 -47,122 -43,126c4,4 108,53 232,110c510,233 1149,566 1530,796c416,251 694,456 933,690c241,236 375,443 439,681c30,113 30,308 0,415c-126,443 -557,751 -1377,982c-686,193 -1574,323 -2934,427l-34,3l-99,230c-457,1058 -813,1825 -1024,2200c-263,470 -491,749 -723,884c-154,91 -349,128 -506,97z" fill="#f7f7f7" id="svg_2" stroke="#000000" stroke-width="50"/>
  </g>
 </g>
</svg>